<mxfile host="app.diagrams.net" agent="Mozilla/5.0 (Windows NT 10.0; Win64; x64) AppleWebKit/537.36 (KHTML, like Gecko) Chrome/129.0.0.0 Safari/537.36" version="24.7.17">
  <diagram name="PÃ¡gina-1" id="QpFmvy-IGzjzQM-zCG0f">
    <mxGraphModel grid="1" page="1" gridSize="10" guides="1" tooltips="1" connect="1" arrows="1" fold="1" pageScale="1" pageWidth="827" pageHeight="1169" math="0" shadow="0">
      <root>
        <mxCell id="0" />
        <mxCell id="1" parent="0" />
        <mxCell id="uTb6xyaymKVgC9_db7KQ-4" style="rounded=0;orthogonalLoop=1;jettySize=auto;html=1;entryX=0;entryY=0.5;entryDx=0;entryDy=0;endArrow=none;endFill=0;" edge="1" parent="1" source="uTb6xyaymKVgC9_db7KQ-1" target="uTb6xyaymKVgC9_db7KQ-2">
          <mxGeometry relative="1" as="geometry" />
        </mxCell>
        <mxCell id="uTb6xyaymKVgC9_db7KQ-26" style="edgeStyle=none;shape=connector;rounded=0;orthogonalLoop=1;jettySize=auto;html=1;entryX=0.5;entryY=1;entryDx=0;entryDy=0;strokeColor=default;align=center;verticalAlign=middle;fontFamily=Helvetica;fontSize=11;fontColor=default;labelBackgroundColor=default;endArrow=none;endFill=0;" edge="1" parent="1" source="uTb6xyaymKVgC9_db7KQ-1" target="uTb6xyaymKVgC9_db7KQ-24">
          <mxGeometry relative="1" as="geometry" />
        </mxCell>
        <mxCell id="uTb6xyaymKVgC9_db7KQ-53" style="edgeStyle=none;shape=connector;rounded=0;orthogonalLoop=1;jettySize=auto;html=1;entryX=0;entryY=1;entryDx=0;entryDy=0;strokeColor=default;align=center;verticalAlign=middle;fontFamily=Helvetica;fontSize=11;fontColor=default;labelBackgroundColor=default;endArrow=none;endFill=0;" edge="1" parent="1" source="uTb6xyaymKVgC9_db7KQ-1" target="uTb6xyaymKVgC9_db7KQ-52">
          <mxGeometry relative="1" as="geometry" />
        </mxCell>
        <mxCell id="uTb6xyaymKVgC9_db7KQ-1" value="torneo" style="whiteSpace=wrap;html=1;align=center;" vertex="1" parent="1">
          <mxGeometry x="90" y="250" width="100" height="40" as="geometry" />
        </mxCell>
        <mxCell id="uTb6xyaymKVgC9_db7KQ-5" style="edgeStyle=none;shape=connector;rounded=0;orthogonalLoop=1;jettySize=auto;html=1;entryX=0;entryY=0.5;entryDx=0;entryDy=0;strokeColor=default;align=center;verticalAlign=middle;fontFamily=Helvetica;fontSize=11;fontColor=default;labelBackgroundColor=default;endArrow=none;endFill=0;" edge="1" parent="1" source="uTb6xyaymKVgC9_db7KQ-2" target="uTb6xyaymKVgC9_db7KQ-3">
          <mxGeometry relative="1" as="geometry" />
        </mxCell>
        <mxCell id="uTb6xyaymKVgC9_db7KQ-2" value="tienen" style="shape=rhombus;perimeter=rhombusPerimeter;whiteSpace=wrap;html=1;align=center;" vertex="1" parent="1">
          <mxGeometry x="260" y="240" width="120" height="60" as="geometry" />
        </mxCell>
        <mxCell id="uTb6xyaymKVgC9_db7KQ-9" style="edgeStyle=none;shape=connector;rounded=0;orthogonalLoop=1;jettySize=auto;html=1;entryX=0;entryY=0.5;entryDx=0;entryDy=0;strokeColor=default;align=center;verticalAlign=middle;fontFamily=Helvetica;fontSize=11;fontColor=default;labelBackgroundColor=default;endArrow=none;endFill=0;" edge="1" parent="1" source="uTb6xyaymKVgC9_db7KQ-3" target="uTb6xyaymKVgC9_db7KQ-6">
          <mxGeometry relative="1" as="geometry" />
        </mxCell>
        <mxCell id="uTb6xyaymKVgC9_db7KQ-10" style="edgeStyle=none;shape=connector;rounded=0;orthogonalLoop=1;jettySize=auto;html=1;entryX=0;entryY=0.5;entryDx=0;entryDy=0;strokeColor=default;align=center;verticalAlign=middle;fontFamily=Helvetica;fontSize=11;fontColor=default;labelBackgroundColor=default;endArrow=none;endFill=0;" edge="1" parent="1" source="uTb6xyaymKVgC9_db7KQ-3" target="uTb6xyaymKVgC9_db7KQ-7">
          <mxGeometry relative="1" as="geometry" />
        </mxCell>
        <mxCell id="uTb6xyaymKVgC9_db7KQ-14" style="edgeStyle=none;shape=connector;rounded=0;orthogonalLoop=1;jettySize=auto;html=1;entryX=0.5;entryY=0;entryDx=0;entryDy=0;strokeColor=default;align=center;verticalAlign=middle;fontFamily=Helvetica;fontSize=11;fontColor=default;labelBackgroundColor=default;endArrow=none;endFill=0;" edge="1" parent="1" source="uTb6xyaymKVgC9_db7KQ-3" target="uTb6xyaymKVgC9_db7KQ-13">
          <mxGeometry relative="1" as="geometry" />
        </mxCell>
        <mxCell id="uTb6xyaymKVgC9_db7KQ-34" style="edgeStyle=none;shape=connector;rounded=0;orthogonalLoop=1;jettySize=auto;html=1;entryX=0.5;entryY=1;entryDx=0;entryDy=0;strokeColor=default;align=center;verticalAlign=middle;fontFamily=Helvetica;fontSize=11;fontColor=default;labelBackgroundColor=default;endArrow=none;endFill=0;" edge="1" parent="1" source="uTb6xyaymKVgC9_db7KQ-3" target="uTb6xyaymKVgC9_db7KQ-32">
          <mxGeometry relative="1" as="geometry" />
        </mxCell>
        <mxCell id="uTb6xyaymKVgC9_db7KQ-3" value="equipo" style="whiteSpace=wrap;html=1;align=center;" vertex="1" parent="1">
          <mxGeometry x="470" y="250" width="100" height="40" as="geometry" />
        </mxCell>
        <mxCell id="uTb6xyaymKVgC9_db7KQ-6" value="nombre" style="ellipse;whiteSpace=wrap;html=1;align=center;fontFamily=Helvetica;fontSize=11;fontColor=default;labelBackgroundColor=default;" vertex="1" parent="1">
          <mxGeometry x="610" y="200" width="100" height="40" as="geometry" />
        </mxCell>
        <mxCell id="uTb6xyaymKVgC9_db7KQ-7" value="pais" style="ellipse;whiteSpace=wrap;html=1;align=center;fontFamily=Helvetica;fontSize=11;fontColor=default;labelBackgroundColor=default;" vertex="1" parent="1">
          <mxGeometry x="610" y="250" width="100" height="40" as="geometry" />
        </mxCell>
        <mxCell id="uTb6xyaymKVgC9_db7KQ-20" style="edgeStyle=none;shape=connector;rounded=0;orthogonalLoop=1;jettySize=auto;html=1;entryX=0;entryY=0.5;entryDx=0;entryDy=0;strokeColor=default;align=center;verticalAlign=middle;fontFamily=Helvetica;fontSize=11;fontColor=default;labelBackgroundColor=default;endArrow=none;endFill=0;" edge="1" parent="1" source="uTb6xyaymKVgC9_db7KQ-12" target="uTb6xyaymKVgC9_db7KQ-16">
          <mxGeometry relative="1" as="geometry" />
        </mxCell>
        <mxCell id="uTb6xyaymKVgC9_db7KQ-21" style="edgeStyle=none;shape=connector;rounded=0;orthogonalLoop=1;jettySize=auto;html=1;entryX=0;entryY=0.5;entryDx=0;entryDy=0;strokeColor=default;align=center;verticalAlign=middle;fontFamily=Helvetica;fontSize=11;fontColor=default;labelBackgroundColor=default;endArrow=none;endFill=0;" edge="1" parent="1" source="uTb6xyaymKVgC9_db7KQ-12" target="uTb6xyaymKVgC9_db7KQ-17">
          <mxGeometry relative="1" as="geometry" />
        </mxCell>
        <mxCell id="uTb6xyaymKVgC9_db7KQ-22" style="edgeStyle=none;shape=connector;rounded=0;orthogonalLoop=1;jettySize=auto;html=1;entryX=0;entryY=0.5;entryDx=0;entryDy=0;strokeColor=default;align=center;verticalAlign=middle;fontFamily=Helvetica;fontSize=11;fontColor=default;labelBackgroundColor=default;endArrow=none;endFill=0;" edge="1" parent="1" source="uTb6xyaymKVgC9_db7KQ-12" target="uTb6xyaymKVgC9_db7KQ-18">
          <mxGeometry relative="1" as="geometry" />
        </mxCell>
        <mxCell id="uTb6xyaymKVgC9_db7KQ-23" style="edgeStyle=none;shape=connector;rounded=0;orthogonalLoop=1;jettySize=auto;html=1;entryX=0;entryY=0.5;entryDx=0;entryDy=0;strokeColor=default;align=center;verticalAlign=middle;fontFamily=Helvetica;fontSize=11;fontColor=default;labelBackgroundColor=default;endArrow=none;endFill=0;" edge="1" parent="1" source="uTb6xyaymKVgC9_db7KQ-12" target="uTb6xyaymKVgC9_db7KQ-19">
          <mxGeometry relative="1" as="geometry" />
        </mxCell>
        <mxCell id="uTb6xyaymKVgC9_db7KQ-12" value="jugadores" style="whiteSpace=wrap;html=1;align=center;fontFamily=Helvetica;fontSize=11;fontColor=default;labelBackgroundColor=default;" vertex="1" parent="1">
          <mxGeometry x="470" y="440" width="100" height="40" as="geometry" />
        </mxCell>
        <mxCell id="uTb6xyaymKVgC9_db7KQ-15" style="edgeStyle=none;shape=connector;rounded=0;orthogonalLoop=1;jettySize=auto;html=1;entryX=0.5;entryY=0;entryDx=0;entryDy=0;strokeColor=default;align=center;verticalAlign=middle;fontFamily=Helvetica;fontSize=11;fontColor=default;labelBackgroundColor=default;endArrow=none;endFill=0;" edge="1" parent="1" source="uTb6xyaymKVgC9_db7KQ-13" target="uTb6xyaymKVgC9_db7KQ-12">
          <mxGeometry relative="1" as="geometry" />
        </mxCell>
        <mxCell id="uTb6xyaymKVgC9_db7KQ-13" value="trabajan" style="shape=rhombus;perimeter=rhombusPerimeter;whiteSpace=wrap;html=1;align=center;fontFamily=Helvetica;fontSize=11;fontColor=default;labelBackgroundColor=default;" vertex="1" parent="1">
          <mxGeometry x="460" y="340" width="120" height="60" as="geometry" />
        </mxCell>
        <mxCell id="uTb6xyaymKVgC9_db7KQ-16" value="nombre completo" style="ellipse;whiteSpace=wrap;html=1;align=center;fontFamily=Helvetica;fontSize=11;fontColor=default;labelBackgroundColor=default;" vertex="1" parent="1">
          <mxGeometry x="610" y="380" width="100" height="40" as="geometry" />
        </mxCell>
        <mxCell id="uTb6xyaymKVgC9_db7KQ-17" value="edad" style="ellipse;whiteSpace=wrap;html=1;align=center;fontFamily=Helvetica;fontSize=11;fontColor=default;labelBackgroundColor=default;" vertex="1" parent="1">
          <mxGeometry x="610" y="420" width="100" height="40" as="geometry" />
        </mxCell>
        <mxCell id="uTb6xyaymKVgC9_db7KQ-18" value="apodo" style="ellipse;whiteSpace=wrap;html=1;align=center;fontFamily=Helvetica;fontSize=11;fontColor=default;labelBackgroundColor=default;" vertex="1" parent="1">
          <mxGeometry x="610" y="460" width="100" height="40" as="geometry" />
        </mxCell>
        <mxCell id="uTb6xyaymKVgC9_db7KQ-19" value="nivel habilidad" style="ellipse;whiteSpace=wrap;html=1;align=center;fontFamily=Helvetica;fontSize=11;fontColor=default;labelBackgroundColor=default;" vertex="1" parent="1">
          <mxGeometry x="610" y="500" width="100" height="40" as="geometry" />
        </mxCell>
        <mxCell id="uTb6xyaymKVgC9_db7KQ-27" style="edgeStyle=none;shape=connector;rounded=0;orthogonalLoop=1;jettySize=auto;html=1;entryX=0.5;entryY=1;entryDx=0;entryDy=0;strokeColor=default;align=center;verticalAlign=middle;fontFamily=Helvetica;fontSize=11;fontColor=default;labelBackgroundColor=default;endArrow=none;endFill=0;" edge="1" parent="1" source="uTb6xyaymKVgC9_db7KQ-24" target="uTb6xyaymKVgC9_db7KQ-25">
          <mxGeometry relative="1" as="geometry" />
        </mxCell>
        <mxCell id="uTb6xyaymKVgC9_db7KQ-24" value="tienen" style="shape=rhombus;perimeter=rhombusPerimeter;whiteSpace=wrap;html=1;align=center;" vertex="1" parent="1">
          <mxGeometry x="80" y="130" width="120" height="60" as="geometry" />
        </mxCell>
        <mxCell id="uTb6xyaymKVgC9_db7KQ-30" style="edgeStyle=none;shape=connector;rounded=0;orthogonalLoop=1;jettySize=auto;html=1;entryX=0.5;entryY=1;entryDx=0;entryDy=0;strokeColor=default;align=center;verticalAlign=middle;fontFamily=Helvetica;fontSize=11;fontColor=default;labelBackgroundColor=default;endArrow=none;endFill=0;" edge="1" parent="1" source="uTb6xyaymKVgC9_db7KQ-25" target="uTb6xyaymKVgC9_db7KQ-28">
          <mxGeometry relative="1" as="geometry" />
        </mxCell>
        <mxCell id="uTb6xyaymKVgC9_db7KQ-31" style="edgeStyle=none;shape=connector;rounded=0;orthogonalLoop=1;jettySize=auto;html=1;entryX=0.5;entryY=1;entryDx=0;entryDy=0;strokeColor=default;align=center;verticalAlign=middle;fontFamily=Helvetica;fontSize=11;fontColor=default;labelBackgroundColor=default;endArrow=none;endFill=0;" edge="1" parent="1" source="uTb6xyaymKVgC9_db7KQ-25" target="uTb6xyaymKVgC9_db7KQ-29">
          <mxGeometry relative="1" as="geometry" />
        </mxCell>
        <mxCell id="uTb6xyaymKVgC9_db7KQ-25" value="rondas" style="whiteSpace=wrap;html=1;align=center;" vertex="1" parent="1">
          <mxGeometry x="90" y="20" width="100" height="40" as="geometry" />
        </mxCell>
        <mxCell id="uTb6xyaymKVgC9_db7KQ-28" value="fecha" style="ellipse;whiteSpace=wrap;html=1;align=center;fontFamily=Helvetica;fontSize=11;fontColor=default;labelBackgroundColor=default;" vertex="1" parent="1">
          <mxGeometry x="40" y="-60" width="100" height="40" as="geometry" />
        </mxCell>
        <mxCell id="uTb6xyaymKVgC9_db7KQ-29" value="lista equipos participantes" style="ellipse;whiteSpace=wrap;html=1;align=center;fontFamily=Helvetica;fontSize=11;fontColor=default;labelBackgroundColor=default;" vertex="1" parent="1">
          <mxGeometry x="160" y="-60" width="150" height="40" as="geometry" />
        </mxCell>
        <mxCell id="uTb6xyaymKVgC9_db7KQ-35" style="edgeStyle=none;shape=connector;rounded=0;orthogonalLoop=1;jettySize=auto;html=1;entryX=0.5;entryY=1;entryDx=0;entryDy=0;strokeColor=default;align=center;verticalAlign=middle;fontFamily=Helvetica;fontSize=11;fontColor=default;labelBackgroundColor=default;endArrow=none;endFill=0;" edge="1" parent="1" source="uTb6xyaymKVgC9_db7KQ-32" target="uTb6xyaymKVgC9_db7KQ-33">
          <mxGeometry relative="1" as="geometry" />
        </mxCell>
        <mxCell id="uTb6xyaymKVgC9_db7KQ-32" value="juegan" style="shape=rhombus;perimeter=rhombusPerimeter;whiteSpace=wrap;html=1;align=center;" vertex="1" parent="1">
          <mxGeometry x="460" y="150" width="120" height="60" as="geometry" />
        </mxCell>
        <mxCell id="uTb6xyaymKVgC9_db7KQ-39" style="edgeStyle=none;shape=connector;rounded=0;orthogonalLoop=1;jettySize=auto;html=1;entryX=0.5;entryY=1;entryDx=0;entryDy=0;strokeColor=default;align=center;verticalAlign=middle;fontFamily=Helvetica;fontSize=11;fontColor=default;labelBackgroundColor=default;endArrow=none;endFill=0;" edge="1" parent="1" source="uTb6xyaymKVgC9_db7KQ-33" target="uTb6xyaymKVgC9_db7KQ-36">
          <mxGeometry relative="1" as="geometry" />
        </mxCell>
        <mxCell id="uTb6xyaymKVgC9_db7KQ-40" style="edgeStyle=none;shape=connector;rounded=0;orthogonalLoop=1;jettySize=auto;html=1;strokeColor=default;align=center;verticalAlign=middle;fontFamily=Helvetica;fontSize=11;fontColor=default;labelBackgroundColor=default;endArrow=none;endFill=0;" edge="1" parent="1" source="uTb6xyaymKVgC9_db7KQ-33" target="uTb6xyaymKVgC9_db7KQ-37">
          <mxGeometry relative="1" as="geometry" />
        </mxCell>
        <mxCell id="uTb6xyaymKVgC9_db7KQ-41" style="edgeStyle=none;shape=connector;rounded=0;orthogonalLoop=1;jettySize=auto;html=1;entryX=0.5;entryY=1;entryDx=0;entryDy=0;strokeColor=default;align=center;verticalAlign=middle;fontFamily=Helvetica;fontSize=11;fontColor=default;labelBackgroundColor=default;endArrow=none;endFill=0;" edge="1" parent="1" source="uTb6xyaymKVgC9_db7KQ-33" target="uTb6xyaymKVgC9_db7KQ-38">
          <mxGeometry relative="1" as="geometry" />
        </mxCell>
        <mxCell id="uTb6xyaymKVgC9_db7KQ-33" value="partidos" style="whiteSpace=wrap;html=1;align=center;" vertex="1" parent="1">
          <mxGeometry x="470" y="60" width="100" height="40" as="geometry" />
        </mxCell>
        <mxCell id="uTb6xyaymKVgC9_db7KQ-36" value="fecha" style="ellipse;whiteSpace=wrap;html=1;align=center;fontFamily=Helvetica;fontSize=11;fontColor=default;labelBackgroundColor=default;" vertex="1" parent="1">
          <mxGeometry x="370" y="-20" width="100" height="40" as="geometry" />
        </mxCell>
        <mxCell id="uTb6xyaymKVgC9_db7KQ-37" value="puntuacion" style="ellipse;whiteSpace=wrap;html=1;align=center;fontFamily=Helvetica;fontSize=11;fontColor=default;labelBackgroundColor=default;" vertex="1" parent="1">
          <mxGeometry x="470" y="-20" width="100" height="40" as="geometry" />
        </mxCell>
        <mxCell id="uTb6xyaymKVgC9_db7KQ-38" value="equipo ganador" style="ellipse;whiteSpace=wrap;html=1;align=center;fontFamily=Helvetica;fontSize=11;fontColor=default;labelBackgroundColor=default;" vertex="1" parent="1">
          <mxGeometry x="570" y="-20" width="100" height="40" as="geometry" />
        </mxCell>
        <mxCell id="uTb6xyaymKVgC9_db7KQ-45" style="edgeStyle=none;shape=connector;rounded=0;orthogonalLoop=1;jettySize=auto;html=1;entryX=0;entryY=0.5;entryDx=0;entryDy=0;strokeColor=default;align=center;verticalAlign=middle;fontFamily=Helvetica;fontSize=11;fontColor=default;labelBackgroundColor=default;endArrow=none;endFill=0;" edge="1" parent="1" source="uTb6xyaymKVgC9_db7KQ-42" target="uTb6xyaymKVgC9_db7KQ-12">
          <mxGeometry relative="1" as="geometry" />
        </mxCell>
        <mxCell id="uTb6xyaymKVgC9_db7KQ-42" value="puede ser" style="shape=rhombus;perimeter=rhombusPerimeter;whiteSpace=wrap;html=1;align=center;fontFamily=Helvetica;fontSize=11;fontColor=default;labelBackgroundColor=default;" vertex="1" parent="1">
          <mxGeometry x="310" y="430" width="120" height="60" as="geometry" />
        </mxCell>
        <mxCell id="uTb6xyaymKVgC9_db7KQ-44" style="edgeStyle=none;shape=connector;rounded=0;orthogonalLoop=1;jettySize=auto;html=1;entryX=0;entryY=0.5;entryDx=0;entryDy=0;strokeColor=default;align=center;verticalAlign=middle;fontFamily=Helvetica;fontSize=11;fontColor=default;labelBackgroundColor=default;endArrow=none;endFill=0;" edge="1" parent="1" source="uTb6xyaymKVgC9_db7KQ-43" target="uTb6xyaymKVgC9_db7KQ-42">
          <mxGeometry relative="1" as="geometry" />
        </mxCell>
        <mxCell id="uTb6xyaymKVgC9_db7KQ-50" style="edgeStyle=none;shape=connector;rounded=0;orthogonalLoop=1;jettySize=auto;html=1;entryX=0;entryY=1;entryDx=0;entryDy=0;strokeColor=default;align=center;verticalAlign=middle;fontFamily=Helvetica;fontSize=11;fontColor=default;labelBackgroundColor=default;endArrow=none;endFill=0;" edge="1" parent="1" source="uTb6xyaymKVgC9_db7KQ-43" target="uTb6xyaymKVgC9_db7KQ-49">
          <mxGeometry relative="1" as="geometry" />
        </mxCell>
        <mxCell id="uTb6xyaymKVgC9_db7KQ-43" value="coach" style="whiteSpace=wrap;html=1;align=center;fontFamily=Helvetica;fontSize=11;fontColor=default;labelBackgroundColor=default;" vertex="1" parent="1">
          <mxGeometry x="150" y="440" width="100" height="40" as="geometry" />
        </mxCell>
        <mxCell id="uTb6xyaymKVgC9_db7KQ-48" value="puede ser" style="shape=rhombus;perimeter=rhombusPerimeter;whiteSpace=wrap;html=1;align=center;fontFamily=Helvetica;fontSize=11;fontColor=default;labelBackgroundColor=default;" vertex="1" parent="1">
          <mxGeometry x="310" y="430" width="120" height="60" as="geometry" />
        </mxCell>
        <mxCell id="uTb6xyaymKVgC9_db7KQ-51" style="edgeStyle=none;shape=connector;rounded=0;orthogonalLoop=1;jettySize=auto;html=1;entryX=0;entryY=1;entryDx=0;entryDy=0;strokeColor=default;align=center;verticalAlign=middle;fontFamily=Helvetica;fontSize=11;fontColor=default;labelBackgroundColor=default;endArrow=none;endFill=0;" edge="1" parent="1" source="uTb6xyaymKVgC9_db7KQ-49" target="uTb6xyaymKVgC9_db7KQ-3">
          <mxGeometry relative="1" as="geometry" />
        </mxCell>
        <mxCell id="uTb6xyaymKVgC9_db7KQ-49" value="dentro de un mismo" style="shape=rhombus;perimeter=rhombusPerimeter;whiteSpace=wrap;html=1;align=center;fontFamily=Helvetica;fontSize=11;fontColor=default;labelBackgroundColor=default;" vertex="1" parent="1">
          <mxGeometry x="280" y="330" width="134" height="60" as="geometry" />
        </mxCell>
        <mxCell id="uTb6xyaymKVgC9_db7KQ-54" style="edgeStyle=none;shape=connector;rounded=0;orthogonalLoop=1;jettySize=auto;html=1;entryX=0.25;entryY=0;entryDx=0;entryDy=0;strokeColor=default;align=center;verticalAlign=middle;fontFamily=Helvetica;fontSize=11;fontColor=default;labelBackgroundColor=default;endArrow=none;endFill=0;" edge="1" parent="1" source="uTb6xyaymKVgC9_db7KQ-52" target="uTb6xyaymKVgC9_db7KQ-3">
          <mxGeometry relative="1" as="geometry" />
        </mxCell>
        <mxCell id="uTb6xyaymKVgC9_db7KQ-56" style="edgeStyle=none;shape=connector;rounded=0;orthogonalLoop=1;jettySize=auto;html=1;entryX=0.5;entryY=1;entryDx=0;entryDy=0;strokeColor=default;align=center;verticalAlign=middle;fontFamily=Helvetica;fontSize=11;fontColor=default;labelBackgroundColor=default;endArrow=none;endFill=0;" edge="1" parent="1" source="uTb6xyaymKVgC9_db7KQ-52" target="uTb6xyaymKVgC9_db7KQ-55">
          <mxGeometry relative="1" as="geometry" />
        </mxCell>
        <mxCell id="uTb6xyaymKVgC9_db7KQ-52" value="gana" style="shape=rhombus;perimeter=rhombusPerimeter;whiteSpace=wrap;html=1;align=center;" vertex="1" parent="1">
          <mxGeometry x="260" y="130" width="120" height="60" as="geometry" />
        </mxCell>
        <mxCell id="uTb6xyaymKVgC9_db7KQ-55" value="premio obtenido" style="ellipse;whiteSpace=wrap;html=1;align=center;fontFamily=Helvetica;fontSize=11;fontColor=default;labelBackgroundColor=default;" vertex="1" parent="1">
          <mxGeometry x="270" y="50" width="100" height="40" as="geometry" />
        </mxCell>
        <mxCell id="uTb6xyaymKVgC9_db7KQ-60" style="edgeStyle=none;shape=connector;rounded=0;orthogonalLoop=1;jettySize=auto;html=1;entryX=0;entryY=0;entryDx=0;entryDy=0;strokeColor=default;align=center;verticalAlign=middle;fontFamily=Helvetica;fontSize=11;fontColor=default;labelBackgroundColor=default;endArrow=none;endFill=0;" edge="1" parent="1" source="uTb6xyaymKVgC9_db7KQ-57" target="uTb6xyaymKVgC9_db7KQ-1">
          <mxGeometry relative="1" as="geometry" />
        </mxCell>
        <mxCell id="uTb6xyaymKVgC9_db7KQ-57" value="edicion (aÃ±o)" style="ellipse;whiteSpace=wrap;html=1;align=center;fontFamily=Helvetica;fontSize=11;fontColor=default;labelBackgroundColor=default;" vertex="1" parent="1">
          <mxGeometry x="-60" y="210" width="100" height="40" as="geometry" />
        </mxCell>
        <mxCell id="uTb6xyaymKVgC9_db7KQ-61" style="edgeStyle=none;shape=connector;rounded=0;orthogonalLoop=1;jettySize=auto;html=1;entryX=0;entryY=0.5;entryDx=0;entryDy=0;strokeColor=default;align=center;verticalAlign=middle;fontFamily=Helvetica;fontSize=11;fontColor=default;labelBackgroundColor=default;endArrow=none;endFill=0;" edge="1" parent="1" source="uTb6xyaymKVgC9_db7KQ-58" target="uTb6xyaymKVgC9_db7KQ-1">
          <mxGeometry relative="1" as="geometry" />
        </mxCell>
        <mxCell id="uTb6xyaymKVgC9_db7KQ-58" value="fecha inicio" style="ellipse;whiteSpace=wrap;html=1;align=center;fontFamily=Helvetica;fontSize=11;fontColor=default;labelBackgroundColor=default;" vertex="1" parent="1">
          <mxGeometry x="-60" y="250" width="100" height="40" as="geometry" />
        </mxCell>
        <mxCell id="uTb6xyaymKVgC9_db7KQ-62" style="edgeStyle=none;shape=connector;rounded=0;orthogonalLoop=1;jettySize=auto;html=1;entryX=0;entryY=1;entryDx=0;entryDy=0;strokeColor=default;align=center;verticalAlign=middle;fontFamily=Helvetica;fontSize=11;fontColor=default;labelBackgroundColor=default;endArrow=none;endFill=0;" edge="1" parent="1" source="uTb6xyaymKVgC9_db7KQ-59" target="uTb6xyaymKVgC9_db7KQ-1">
          <mxGeometry relative="1" as="geometry" />
        </mxCell>
        <mxCell id="uTb6xyaymKVgC9_db7KQ-59" value="fecha fin" style="ellipse;whiteSpace=wrap;html=1;align=center;fontFamily=Helvetica;fontSize=11;fontColor=default;labelBackgroundColor=default;" vertex="1" parent="1">
          <mxGeometry x="-60" y="290" width="100" height="40" as="geometry" />
        </mxCell>
      </root>
    </mxGraphModel>
  </diagram>
</mxfile>
